# xmcd CD database file
#
# Track frame offsets:
#	150
#	11960
#	20757
#	29962
#	42387
#	51912
#	63322
#	74697
#	85277
#	91717
#	104957
#	118755
#	127467
#	140330
#	148545
#	161262
#
# Disc length: 2260 seconds
#
# Revision: 2
# Processed by: cddbd v1.4PL0 Copyright (c) Steve Scherf et al.
# Submitted via: CDex 1.40Release
#
DISCID=fb08d210
DTITLE=Various Artist - 16 Fidler's Greatest Hits
DYEAR=1900
DGENRE=
TTITLE0=Scotty Stoneman - Orange Blossom Revival
TTITLE1=Howdy Forrester - Still On The Hill
TTITLE2=Chubby Wise - Peacock Rag
TTITLE3=Reno and Harrell - Maiden's Prayer
TTITLE4=Buddy Spicher and Shroty Lavender - Three Fiddle Swing
TTITLE5=Ken Clark - Lee Highway Ramble
TTITLE6=Harry Choates - Drag That Fiddle
TTITLE7=Mac Magaha with Reno and Smiley - Mac's Hoedown
TTITLE8=Benny Martin - Big Tiger Special
TTITLE9=Curly Fox - Black Mountain Rag
TTITLE10=Scotty Stoneman - Talkin' Fiddle Blues
TTITLE11=Joe Red Hayes - Sweet Nellie
TTITLE12=Fiddlin Arthur Smith - Tulsa Hop
TTITLE13=Jerry Rivers - Molly and Tenbrooks
TTITLE14=Fiddlin Red Herron - Listen To The Mockinbird
TTITLE15=Tommy Jackson - Cotton Eyed Joe
EXTD=1987 Highland Music - Suite 1020 West - 3 Parklane Blvd. - Dearborn Michigan 48126
EXTT0=
EXTT1=
EXTT2=
EXTT3=
EXTT4=
EXTT5=
EXTT6=
EXTT7=
EXTT8=
EXTT9=
EXTT10=
EXTT11=
EXTT12=
EXTT13=
EXTT14=
EXTT15=
PLAYORDER=
